<svg xmlns="http://www.w3.org/2000/svg" viewBox="0 0 64 64" role="img" aria-label="Sugestoes">
  <g fill="none" stroke="#fff" stroke-linecap="round" stroke-linejoin="round">
    <path stroke-width="5" d="M13 16.5h38a6 6 0 0 1 6 6v18a6 6 0 0 1-6 6H31L18.5 55v-8.5H13a6 6 0 0 1-6-6v-18a6 6 0 0 1 6-6Z"/>
    <path stroke-width="4.5" d="M30 37h8"/>
    <path stroke-width="4.5" d="M29 29.5a7 7 0 1 1 11 5.7c-1.4 1-2 2-2 3.8"/>
    <path stroke-width="4" d="M21 27h2.5M42.5 17l1.8-3.2M49 28h3.2"/>
  </g>
</svg>
